<svg width="141" height="33" viewBox="0 0 141 33" fill="none" xmlns="http://www.w3.org/2000/svg">
<path d="M18.3154 32.3955C17.4805 32.3955 16.6821 32.2856 15.9204 32.0659C15.1733 31.8462 14.4556 31.5605 13.7671 31.209C13.0786 30.8574 12.4194 30.4692 11.7896 30.0444C11.1743 29.605 10.5811 29.1655 10.0098 28.7261C9.21875 29.8247 8.36182 30.7036 7.43896 31.3628C6.51611 32.0073 5.4834 32.3296 4.34082 32.3296C3.93066 32.3296 3.52051 32.2637 3.11035 32.1318C2.68555 32 2.30469 31.8022 1.96777 31.5386C1.63086 31.2603 1.35986 30.9087 1.15479 30.4839C0.935059 30.0591 0.825195 29.5464 0.825195 28.9458C0.825195 28.3892 0.935059 27.8618 1.15479 27.3638C1.35986 26.8657 1.66016 26.4263 2.05566 26.0454C2.45117 25.6646 2.92725 25.3643 3.48389 25.1445C4.04053 24.9102 4.66309 24.793 5.35156 24.793C5.9082 24.793 6.47217 24.9248 7.04346 25.1885C7.62939 25.4375 8.22998 25.7598 8.84521 26.1553C9.22607 25.2764 9.62158 24.2803 10.0317 23.167C10.4565 22.0537 10.9399 20.8013 11.4819 19.4097C11.8921 18.311 12.3169 17.1831 12.7563 16.0259C13.2104 14.8687 13.6719 13.7407 14.1406 12.6421C14.624 11.5288 15.1074 10.4814 15.5908 9.5C16.0889 8.51855 16.5942 7.66162 17.1069 6.9292C17.8979 5.77197 18.6377 4.81982 19.3262 4.07275C20.0293 3.32568 20.7178 2.71777 21.3916 2.24902C22.0654 1.78027 22.7393 1.41406 23.4131 1.15039C24.0869 0.886719 24.812 0.666992 25.5884 0.491211C25.8228 0.432617 26.0645 0.395996 26.3135 0.381348C26.5771 0.352051 26.8335 0.337402 27.0825 0.337402C27.8003 0.337402 28.5107 0.45459 29.2139 0.688965C29.9316 0.92334 30.5688 1.2749 31.1255 1.74365C31.6821 2.19775 32.1289 2.76172 32.4658 3.43555C32.8174 4.10938 32.9932 4.89307 32.9932 5.78662C32.9932 6.54834 32.8613 7.22217 32.5977 7.80811C32.3486 8.39404 32.0117 8.92139 31.5869 9.39014C31.1768 9.85889 30.7007 10.291 30.1587 10.6865C29.6313 11.082 29.082 11.4629 28.5107 11.8291C27.9541 12.1953 27.4341 12.5176 26.9507 12.7959C26.4819 13.0596 26.0718 13.3086 25.7202 13.543C25.3687 13.7627 25.0903 13.9824 24.8853 14.2021C24.6948 14.4072 24.5996 14.6343 24.5996 14.8833C24.5996 15.1763 24.7461 15.6304 25.0391 16.2456C25.3467 16.8462 25.6763 17.564 26.0278 18.3989C26.394 19.2339 26.7236 20.1567 27.0166 21.1675C27.3242 22.1782 27.478 23.2183 27.478 24.2876C27.478 25.5034 27.2363 26.6094 26.7529 27.6055C26.2842 28.5869 25.6396 29.4365 24.8193 30.1543C23.999 30.8721 23.0249 31.4287 21.897 31.8242C20.7837 32.2051 19.5898 32.3955 18.3154 32.3955ZM18.0078 31.0991C18.96 31.0991 19.8315 30.916 20.6226 30.5498C21.4282 30.1836 22.1167 29.6929 22.688 29.0776C23.2739 28.4624 23.728 27.7593 24.0503 26.9683C24.3726 26.1772 24.5337 25.3496 24.5337 24.4854C24.5337 23.6504 24.4019 22.8081 24.1382 21.9585C23.8892 21.1089 23.6035 20.3105 23.2812 19.5635C22.9736 18.8018 22.688 18.1133 22.4243 17.498C22.1753 16.8828 22.0508 16.3921 22.0508 16.0259C22.0508 15.7183 22.1387 15.4399 22.3145 15.1909C22.4902 14.9272 22.7393 14.6636 23.0615 14.3999C23.3984 14.1362 23.8086 13.8433 24.292 13.521C24.7754 13.1987 25.3247 12.8179 25.9399 12.3784C26.5259 11.9683 27.0679 11.5288 27.5659 11.0601C28.0786 10.5767 28.5181 10.064 28.8843 9.52197C29.2651 8.97998 29.5581 8.40869 29.7632 7.80811C29.9829 7.19287 30.0928 6.53369 30.0928 5.83057C30.0928 5.11279 29.9829 4.49023 29.7632 3.96289C29.5581 3.4209 29.2578 2.97412 28.8623 2.62256C28.4668 2.271 27.9907 2.00732 27.4341 1.83154C26.8921 1.65576 26.2842 1.56787 25.6104 1.56787C25.2148 1.56787 24.834 1.61914 24.4678 1.72168C24.1162 1.82422 23.8232 1.94873 23.5889 2.09521C23.0322 2.44678 22.4756 2.9668 21.9189 3.65527C21.377 4.3291 20.8423 5.12012 20.3149 6.02832C19.8022 6.93652 19.2896 7.93994 18.7769 9.03857C18.2788 10.1226 17.7881 11.2432 17.3047 12.4004C16.8359 13.543 16.3745 14.7002 15.9204 15.8721C15.481 17.0293 15.0562 18.1426 14.646 19.2119C14.0601 20.7207 13.4521 22.1929 12.8223 23.6284C12.207 25.064 11.5259 26.375 10.7788 27.5615C11.3501 27.9863 11.9287 28.4111 12.5146 28.8359C13.1006 29.2461 13.6938 29.6196 14.2944 29.9565C14.895 30.2935 15.5029 30.5718 16.1182 30.7915C16.7334 30.9966 17.3633 31.0991 18.0078 31.0991ZM4.09912 31.231C4.55322 31.231 4.96338 31.1577 5.32959 31.0112C5.71045 30.8501 6.06201 30.6157 6.38428 30.3081C6.72119 30.0005 7.04346 29.605 7.35107 29.1216C7.65869 28.6382 7.96631 28.0669 8.27393 27.4077C7.71729 26.9976 7.17529 26.668 6.64795 26.4189C6.12061 26.1553 5.61523 26.0234 5.13184 26.0234C4.58984 26.0234 4.12109 26.1187 3.72559 26.3091C3.31543 26.4849 2.97852 26.7192 2.71484 27.0122C2.43652 27.2905 2.23145 27.6128 2.09961 27.979C1.95312 28.3306 1.87988 28.6748 1.87988 29.0117C1.87988 29.7002 2.08496 30.2422 2.49512 30.6377C2.89062 31.0332 3.42529 31.231 4.09912 31.231ZM46.0449 24.0459C45.5762 24.6465 45.1367 25.1519 44.7266 25.562C44.3164 25.9722 43.9136 26.3091 43.5181 26.5728C43.1226 26.8364 42.7344 27.0342 42.3535 27.166C41.9873 27.2979 41.6138 27.3857 41.2329 27.4297C40.7935 28.0742 40.3027 28.6821 39.7607 29.2534C39.2334 29.8101 38.6694 30.3008 38.0688 30.7256C37.4829 31.1357 36.8604 31.4653 36.2012 31.7144C35.542 31.9487 34.8755 32.0659 34.2017 32.0659C33.6597 32.0659 33.1323 31.978 32.6196 31.8022C32.1069 31.6118 31.6528 31.3335 31.2573 30.9673C30.8472 30.5864 30.5249 30.1177 30.2905 29.561C30.0415 28.9897 29.917 28.3232 29.917 27.5615C29.917 26.375 30.1294 25.2031 30.5542 24.0459C30.979 22.874 31.5723 21.7827 32.334 20.772C33.0957 19.7612 34.0112 18.853 35.0806 18.0474C36.1499 17.2417 37.3291 16.5972 38.6182 16.1138L38.8159 16.4214C37.688 17.4028 36.7139 18.4502 35.8936 19.5635C35.0879 20.6768 34.4214 21.7974 33.894 22.9253C33.3667 24.0386 32.9785 25.1226 32.7295 26.1772C32.4658 27.2319 32.334 28.1914 32.334 29.0557C32.334 29.334 32.3633 29.605 32.4219 29.8687C32.4805 30.1177 32.5757 30.3447 32.7075 30.5498C32.8247 30.7402 32.9712 30.894 33.147 31.0112C33.3228 31.1284 33.5352 31.187 33.7842 31.187C34.1064 31.187 34.458 31.0771 34.8389 30.8574C35.2344 30.6377 35.6372 30.3447 36.0474 29.9785C36.4575 29.5977 36.8677 29.1509 37.2778 28.6382C37.7026 28.1255 38.1128 27.5762 38.5083 26.9902C37.8052 26.6094 37.2998 26.0674 36.9922 25.3643C36.6846 24.6465 36.5308 23.8701 36.5308 23.0352C36.5308 22.2588 36.6699 21.5044 36.9482 20.772C37.2266 20.0249 37.5854 19.3657 38.0249 18.7944C38.4644 18.2231 38.9478 17.769 39.4751 17.4321C40.0024 17.0806 40.5151 16.9048 41.0132 16.9048C41.2769 16.9048 41.5625 16.9634 41.8701 17.0806C42.1777 17.1978 42.4634 17.3955 42.7271 17.6738C42.9907 17.9521 43.2104 18.3257 43.3862 18.7944C43.562 19.2632 43.6499 19.8491 43.6499 20.5522C43.6499 21.4897 43.4814 22.4858 43.1445 23.5405C42.8076 24.5806 42.3462 25.606 41.7603 26.6167C42.0239 26.5581 42.2876 26.4629 42.5513 26.3311C42.8296 26.1992 43.1152 26.0161 43.4082 25.7817C43.7158 25.5474 44.0381 25.2544 44.375 24.9028C44.7266 24.5366 45.1074 24.0972 45.5176 23.5845L46.0449 24.0459ZM37.3438 22.9692C37.3438 23.7603 37.4683 24.4487 37.7173 25.0347C37.981 25.6206 38.3838 26.0601 38.9258 26.353C39.3213 25.7231 39.6875 25.0713 40.0244 24.3975C40.3613 23.7236 40.6543 23.0645 40.9033 22.4199C41.1523 21.7607 41.3501 21.1382 41.4966 20.5522C41.6431 19.9517 41.7163 19.417 41.7163 18.9482C41.7163 18.7139 41.6797 18.5234 41.6064 18.377C41.5332 18.2305 41.438 18.1206 41.3208 18.0474C41.2183 17.9595 41.1011 17.9009 40.9692 17.8716C40.8521 17.8423 40.7495 17.8276 40.6616 17.8276C40.3833 17.8276 40.0537 17.9741 39.6729 18.2671C39.292 18.5454 38.9258 18.9263 38.5742 19.4097C38.2373 19.8784 37.9443 20.4277 37.6953 21.0576C37.4609 21.6729 37.3438 22.3101 37.3438 22.9692ZM49.9121 27.188C49.751 27.5396 49.6191 27.9058 49.5166 28.2866C49.4141 28.6528 49.3628 28.9604 49.3628 29.2095C49.3628 29.5464 49.4507 29.7588 49.6265 29.8467C49.8022 29.9199 49.9927 29.9565 50.1978 29.9565C50.4175 29.9565 50.6738 29.8027 50.9668 29.4951C51.2598 29.1729 51.5747 28.7554 51.9116 28.2427C52.2632 27.73 52.6294 27.1367 53.0103 26.4629C53.4058 25.7891 53.8013 25.1006 54.1968 24.3975C54.5923 23.6797 54.9878 22.9692 55.3833 22.2661C55.7788 21.5483 56.167 20.8892 56.5479 20.2886C57.0605 19.4683 57.4854 18.7944 57.8223 18.2671C58.1738 17.7251 58.4961 17.293 58.7891 16.9707C59.082 16.6484 59.3677 16.4287 59.646 16.3115C59.939 16.1797 60.2905 16.1138 60.7007 16.1138C61.0083 16.1138 61.2573 16.1943 61.4478 16.3555C61.6382 16.5166 61.7334 16.7144 61.7334 16.9487C61.7334 17.1392 61.7041 17.3369 61.6455 17.542C61.6016 17.7471 61.543 17.9302 61.4697 18.0913C61.4111 18.2231 61.2793 18.5381 61.0742 19.0361C60.8838 19.5342 60.6421 20.1348 60.3491 20.8379C60.0708 21.5264 59.7705 22.2661 59.4482 23.0571C59.1406 23.8481 58.8403 24.6025 58.5474 25.3203C58.269 26.0234 58.0127 26.646 57.7783 27.188C57.5586 27.73 57.4121 28.0889 57.3389 28.2646C57.2803 28.3965 57.229 28.5356 57.1851 28.6821C57.1411 28.8286 57.1191 28.9531 57.1191 29.0557C57.1191 29.2314 57.1558 29.3486 57.229 29.4072C57.3169 29.4658 57.4268 29.4951 57.5586 29.4951C57.7637 29.4951 58.0127 29.3926 58.3057 29.1875C58.5986 28.9824 58.9062 28.6821 59.2285 28.2866L63.2495 23.3208L63.7988 23.7603L58.9429 29.7588C58.5913 30.1982 58.2617 30.5645 57.9541 30.8574C57.6465 31.1504 57.3535 31.3848 57.0752 31.5605C56.8115 31.7217 56.5405 31.8389 56.2622 31.9121C55.9985 31.9854 55.7275 32.022 55.4492 32.022C55.0098 32.022 54.6436 31.8975 54.3506 31.6484C54.0576 31.3848 53.9111 31.0552 53.9111 30.6597C53.9111 30.2202 53.9917 29.7661 54.1528 29.2974C54.3286 28.8286 54.5776 28.2427 54.8999 27.5396C55.0171 27.2905 55.1562 26.9683 55.3174 26.5728C55.4932 26.1626 55.6763 25.7378 55.8667 25.2983C56.0571 24.8442 56.2476 24.3901 56.438 23.936C56.6284 23.4819 56.7969 23.0718 56.9434 22.7056C57.0898 22.3247 57.207 22.0098 57.2949 21.7607C57.3975 21.5117 57.4487 21.3652 57.4487 21.3213C57.4487 21.1748 57.3975 21.1016 57.2949 21.1016C57.1631 21.1016 57.0239 21.2114 56.8774 21.4312C55.9546 22.8374 55.1489 24.1851 54.4604 25.4741C53.772 26.7485 53.1128 27.8765 52.4829 28.8579C51.853 29.8247 51.2158 30.5938 50.5713 31.165C49.9414 31.7363 49.2236 32.022 48.418 32.022C47.9346 32.022 47.5244 31.8462 47.1875 31.4946C46.8359 31.1284 46.6602 30.6157 46.6602 29.9565C46.6602 29.6929 46.6895 29.4219 46.748 29.1436C46.792 28.8652 46.8506 28.6089 46.9238 28.3745C46.9971 28.1255 47.0703 27.9058 47.1436 27.7153C47.2021 27.5249 47.2534 27.3857 47.2974 27.2979L50.5933 19.4097C50.6372 19.3071 50.6592 19.2266 50.6592 19.168C50.6592 19.0801 50.6299 19.0215 50.5713 18.9922C50.5273 18.9482 50.4688 18.9263 50.3955 18.9263C50.249 18.9263 50.1172 19.0068 50 19.168L45.6494 24.5513L45.1001 24.1118L50.0439 18.0034C50.4248 17.5347 50.8203 17.1245 51.2305 16.7729C51.6553 16.4067 52.0947 16.2236 52.5488 16.2236C52.9736 16.2236 53.2812 16.3408 53.4717 16.5752C53.6621 16.7949 53.7573 17.0439 53.7573 17.3223C53.7573 17.6006 53.7061 17.9155 53.6035 18.2671C53.501 18.6187 53.3691 18.9849 53.208 19.3657L49.9121 27.188ZM68.1714 19.4097C68.2153 19.3071 68.2373 19.2266 68.2373 19.168C68.2373 19.0801 68.208 19.0215 68.1494 18.9922C68.1055 18.9482 68.0469 18.9263 67.9736 18.9263C67.8271 18.9263 67.6953 19.0068 67.5781 19.168L63.2275 24.5513L62.6782 24.1118L67.6221 18.0034C68.0029 17.5347 68.3984 17.1245 68.8086 16.7729C69.2334 16.4067 69.6729 16.2236 70.127 16.2236C70.5518 16.2236 70.8594 16.3408 71.0498 16.5752C71.2402 16.7949 71.3354 17.0439 71.3354 17.3223C71.3354 17.6006 71.2842 17.9155 71.1816 18.2671C71.0791 18.6187 70.9473 18.9849 70.7861 19.3657L67.7319 26.5508C67.644 26.7559 67.6001 26.917 67.6001 27.0342C67.6001 27.1807 67.6587 27.2539 67.7759 27.2539C67.937 27.2539 68.1128 27.1074 68.3032 26.8145L72.8955 19.981C73.3643 19.2778 73.7817 18.6846 74.1479 18.2012C74.5288 17.7031 74.8804 17.3003 75.2026 16.9927C75.5396 16.6851 75.8545 16.4653 76.1475 16.3335C76.4551 16.187 76.77 16.1138 77.0923 16.1138C77.6489 16.1138 78.0737 16.2236 78.3667 16.4434C78.6597 16.6631 78.8062 16.9854 78.8062 17.4102C78.8062 17.6592 78.7695 17.9229 78.6963 18.2012C78.623 18.4648 78.5498 18.6992 78.4766 18.9043L74.6533 28.2646C74.5947 28.4111 74.5435 28.5576 74.4995 28.7041C74.4556 28.8359 74.4336 28.9531 74.4336 29.0557C74.4336 29.2314 74.4702 29.3486 74.5435 29.4072C74.6313 29.4658 74.7412 29.4951 74.873 29.4951C75.0781 29.4951 75.3271 29.3926 75.6201 29.1875C75.9131 28.9824 76.2207 28.6821 76.543 28.2866L80.564 23.3208L81.1133 23.7603L76.2573 29.7588C75.9058 30.1982 75.5762 30.5645 75.2686 30.8574C74.9609 31.1504 74.668 31.3848 74.3896 31.5605C74.126 31.7217 73.855 31.8389 73.5767 31.9121C73.313 31.9854 73.042 32.022 72.7637 32.022C72.3242 32.022 71.958 31.8975 71.665 31.6484C71.3721 31.3848 71.2256 31.0552 71.2256 30.6597C71.2256 30.2935 71.3135 29.8613 71.4893 29.3633C71.665 28.8652 71.9067 28.2573 72.2144 27.5396L75.7739 19.124C75.8179 19.0215 75.8398 18.9116 75.8398 18.7944C75.8398 18.5015 75.7007 18.355 75.4224 18.355C75.3052 18.355 75.1733 18.3916 75.0269 18.4648C74.895 18.5381 74.7559 18.6846 74.6094 18.9043L67.3584 29.6709C66.7871 30.5205 66.2817 31.1284 65.8423 31.4946C65.4175 31.8462 65 32.022 64.5898 32.022C63.916 32.022 63.5791 31.6997 63.5791 31.0552C63.5791 30.7183 63.667 30.3008 63.8428 29.8027C64.0039 29.3047 64.231 28.7041 64.5239 28.001L68.1714 19.4097ZM90.1221 28.2646C90.0635 28.3965 90.0122 28.5356 89.9683 28.6821C89.9243 28.8286 89.9023 28.9531 89.9023 29.0557C89.9023 29.2314 89.939 29.3486 90.0122 29.4072C90.1001 29.4658 90.21 29.4951 90.3418 29.4951C90.5469 29.4951 90.7959 29.3926 91.0889 29.1875C91.3818 28.9824 91.6895 28.6821 92.0117 28.2866L96.0327 23.3208L96.582 23.7603L91.7261 29.7588C91.3745 30.1982 91.0449 30.5645 90.7373 30.8574C90.4297 31.1504 90.1367 31.3848 89.8584 31.5605C89.5947 31.7217 89.3237 31.8389 89.0454 31.9121C88.7817 31.9854 88.5107 32.022 88.2324 32.022C87.793 32.022 87.4268 31.8975 87.1338 31.6484C86.8408 31.3848 86.6943 31.0552 86.6943 30.6597C86.6943 30.2202 86.7822 29.7661 86.958 29.2974C87.1338 28.8286 87.3755 28.2427 87.6831 27.5396C87.8296 27.188 88.02 26.7412 88.2544 26.1992C88.4888 25.6572 88.7231 25.1079 88.9575 24.5513C89.2065 23.98 89.4336 23.4453 89.6387 22.9473C89.8584 22.4346 90.0269 22.0464 90.144 21.7827C90.2026 21.6509 90.2319 21.5264 90.2319 21.4092C90.2319 21.2627 90.1807 21.1895 90.0781 21.1895C89.9756 21.1895 89.8364 21.2993 89.6606 21.519C89.2065 22.105 88.7158 22.7715 88.1885 23.5186C87.6611 24.2656 87.1118 25.0347 86.5405 25.8257C85.9839 26.6021 85.4126 27.3638 84.8267 28.1108C84.2407 28.8579 83.6548 29.5244 83.0688 30.1104C82.4976 30.6963 81.9409 31.1724 81.3989 31.5386C80.8569 31.8901 80.3516 32.0659 79.8828 32.0659C79.707 32.0659 79.5166 32.0293 79.3115 31.9561C79.0918 31.8828 78.894 31.751 78.7183 31.5605C78.5278 31.3701 78.374 31.1064 78.2568 30.7695C78.1396 30.4326 78.0811 30.0078 78.0811 29.4951C78.0811 28.6602 78.2642 27.7666 78.6304 26.8145C78.9819 25.8477 79.4727 24.8882 80.1025 23.936C80.7178 22.9839 81.4502 22.061 82.2998 21.1675C83.1348 20.2593 84.0283 19.4536 84.9805 18.7505C85.9473 18.0327 86.9434 17.4395 87.9688 16.9707C89.0088 16.502 90.0342 16.2163 91.0449 16.1138V16.5093C90.1367 16.8169 89.2651 17.2563 88.4302 17.8276C87.5952 18.3843 86.8188 19.0215 86.1011 19.7393C85.3833 20.457 84.7314 21.2188 84.1455 22.0244C83.5742 22.8301 83.0762 23.6211 82.6514 24.3975C82.2412 25.1738 81.9263 25.9136 81.7065 26.6167C81.4868 27.3052 81.377 27.8911 81.377 28.3745C81.377 28.6382 81.4209 28.8579 81.5088 29.0337C81.582 29.2095 81.6919 29.2974 81.8384 29.2974C81.9995 29.2974 82.2412 29.1655 82.5635 28.9019C82.8711 28.6382 83.23 28.2866 83.6401 27.8472C84.0503 27.3931 84.4971 26.8804 84.9805 26.3091C85.4639 25.7231 85.9546 25.1152 86.4526 24.4854C86.9507 23.8555 87.4414 23.2183 87.9248 22.5737C88.4229 21.9292 88.8843 21.3213 89.3091 20.75C89.9683 19.8711 90.5469 19.0361 91.0449 18.2451C91.543 17.4395 91.9678 16.729 92.3193 16.1138C92.7295 15.396 93.0884 14.7222 93.396 14.0923L97.1313 5.21533H99.79L90.1221 28.2646ZM99.2627 28.2646C99.2041 28.4111 99.1528 28.5576 99.1089 28.7041C99.0649 28.8359 99.043 28.9531 99.043 29.0557C99.043 29.2314 99.0796 29.3486 99.1528 29.4072C99.2407 29.4658 99.3506 29.4951 99.4824 29.4951C99.6875 29.4951 99.9365 29.3926 100.229 29.1875C100.522 28.9824 100.83 28.6821 101.152 28.2866L105.173 23.3208L105.723 23.7603L100.867 29.7588C100.515 30.1982 100.193 30.5645 99.8999 30.8574C99.6216 31.1504 99.3506 31.3848 99.0869 31.5605C98.8379 31.7217 98.5815 31.8389 98.3179 31.9121C98.0688 31.9854 97.8052 32.022 97.5269 32.022C97.0874 32.022 96.7212 31.8975 96.4282 31.6484C96.1353 31.3848 95.9888 31.0552 95.9888 30.6597C95.9888 30.2935 96.084 29.8613 96.2744 29.3633C96.4502 28.8652 96.6846 28.2573 96.9775 27.5396L101.13 17.6299C100.896 17.9961 100.625 18.4062 100.317 18.8604C100.01 19.3145 99.6362 19.8271 99.1968 20.3984C98.772 20.9697 98.2886 21.6143 97.7466 22.332C97.1899 23.0352 96.5527 23.8262 95.835 24.7051L95.2856 24.2656C96.2964 23.0205 97.1753 21.9072 97.9224 20.9258C98.6694 19.9297 99.314 19.0361 99.856 18.2451C100.398 17.4541 100.859 16.7437 101.24 16.1138C101.621 15.4839 101.958 14.8906 102.251 14.334C102.544 13.7773 102.808 13.25 103.042 12.752C103.291 12.2393 103.555 11.7119 103.833 11.1699L106.338 5.21533H108.975L99.2627 28.2646ZM107.942 31.1211C108.469 31.1211 109.041 31.0039 109.656 30.7695C110.286 30.5352 110.989 30.1323 111.765 29.561C112.556 28.9897 113.428 28.2207 114.38 27.2539C115.332 26.2725 116.401 25.042 117.588 23.5625L118.137 24.002C117.126 25.291 116.196 26.3896 115.347 27.2979C114.497 28.1914 113.721 28.9385 113.018 29.5391C112.314 30.125 111.677 30.5864 111.106 30.9233C110.549 31.2456 110.051 31.4873 109.612 31.6484C109.172 31.8096 108.784 31.9121 108.447 31.9561C108.11 31.9854 107.825 32 107.59 32C107.239 32 106.843 31.9487 106.404 31.8462C105.964 31.7437 105.554 31.5605 105.173 31.2969C104.792 31.0186 104.478 30.645 104.229 30.1763C103.965 29.7075 103.833 29.0996 103.833 28.3525C103.833 27.2539 104.016 26.1919 104.382 25.1665C104.734 24.1411 105.203 23.1816 105.789 22.2881C106.375 21.3799 107.034 20.5522 107.766 19.8052C108.513 19.0581 109.268 18.4209 110.029 17.8936C110.806 17.3516 111.553 16.9341 112.271 16.6411C112.988 16.3481 113.618 16.2017 114.16 16.2017C114.937 16.2017 115.493 16.436 115.83 16.9048C116.182 17.3589 116.357 17.9448 116.357 18.6626C116.357 19.3218 116.211 19.959 115.918 20.5742C115.625 21.1895 115.237 21.7754 114.753 22.332C114.27 22.874 113.706 23.3794 113.062 23.8481C112.432 24.3022 111.765 24.6978 111.062 25.0347C110.374 25.3569 109.67 25.6133 108.953 25.8037C108.25 25.9941 107.59 26.0894 106.975 26.0894C106.785 26.646 106.638 27.1733 106.536 27.6714C106.418 28.1694 106.36 28.6309 106.36 29.0557C106.36 29.8467 106.514 30.3887 106.821 30.6816C107.129 30.9746 107.502 31.1211 107.942 31.1211ZM113.435 17.1025C113.04 17.1025 112.563 17.3589 112.007 17.8716C111.45 18.3696 110.872 19.0215 110.271 19.8271C109.685 20.6328 109.114 21.5337 108.557 22.5298C108.015 23.5112 107.561 24.4927 107.195 25.4741C108.235 25.2983 109.18 24.9468 110.029 24.4194C110.894 23.8774 111.626 23.2549 112.227 22.5518C112.842 21.834 113.311 21.0796 113.633 20.2886C113.97 19.4976 114.138 18.7725 114.138 18.1133C114.138 17.7178 114.072 17.4541 113.94 17.3223C113.809 17.1758 113.64 17.1025 113.435 17.1025ZM115.654 31.0332C115.654 30.8135 115.742 30.5498 115.918 30.2422C116.094 29.9346 116.313 29.6489 116.577 29.3853C116.841 29.1069 117.119 28.8726 117.412 28.6821C117.705 28.4771 117.969 28.3745 118.203 28.3745C118.496 28.3745 118.672 28.4697 118.73 28.6602C118.774 28.8359 118.789 29.0337 118.774 29.2534C118.745 29.4731 118.73 29.6782 118.73 29.8687C118.73 30.0444 118.84 30.1323 119.06 30.1323C119.675 30.1323 120.247 29.8687 120.774 29.3413C121.301 28.814 121.755 28.1401 122.136 27.3198C122.532 26.4995 122.839 25.584 123.059 24.5732C123.279 23.5479 123.389 22.5518 123.389 21.585C123.389 20.75 123.301 20.0688 123.125 19.5415C122.964 18.9995 122.781 18.5381 122.576 18.1572C122.078 18.875 121.426 19.7539 120.62 20.7939C119.829 21.834 118.818 23.1377 117.588 24.7051L117.039 24.2656C118.21 22.7715 119.214 21.4824 120.049 20.3984C120.884 19.2998 121.602 18.3184 122.202 17.4541C122.129 17.293 122.063 17.1465 122.004 17.0146C121.96 16.8682 121.938 16.7217 121.938 16.5752C121.938 16.2383 122.034 15.894 122.224 15.5425C122.415 15.1763 122.656 14.8467 122.949 14.5537C123.242 14.2607 123.564 14.0264 123.916 13.8506C124.282 13.6602 124.634 13.5649 124.971 13.5649C125.146 13.5649 125.337 13.6162 125.542 13.7188C125.747 13.8066 125.85 14.0044 125.85 14.312C125.85 14.4146 125.798 14.5537 125.696 14.7295C125.593 14.9053 125.476 15.0884 125.344 15.2788C125.227 15.4692 125.117 15.6523 125.015 15.8281C124.912 16.0039 124.861 16.1431 124.861 16.2456C124.861 16.3628 124.905 16.5532 124.993 16.8169C125.095 17.0806 125.198 17.4175 125.3 17.8276C125.417 18.2378 125.52 18.7139 125.608 19.2559C125.71 19.7832 125.762 20.3765 125.762 21.0356C125.762 21.856 125.659 22.6763 125.454 23.4966C125.249 24.3022 124.971 25.0859 124.619 25.8477C124.268 26.5947 123.85 27.3052 123.367 27.979C122.883 28.6528 122.363 29.2534 121.807 29.7808C122.905 29.1802 124.062 28.3672 125.278 27.3418C126.494 26.3164 127.732 25.0054 128.992 23.4087L129.541 23.8481C128.662 24.9761 127.754 25.9795 126.816 26.8584C125.879 27.7373 124.941 28.5063 124.004 29.1655C123.066 29.8247 122.136 30.374 121.213 30.8135C120.305 31.2383 119.434 31.5605 118.599 31.7803C118.35 31.8535 118.108 31.9121 117.874 31.9561C117.625 31.9854 117.375 32 117.126 32C116.965 32 116.797 31.9927 116.621 31.978C116.445 31.9487 116.284 31.8975 116.138 31.8242C115.991 31.751 115.874 31.6558 115.786 31.5386C115.698 31.4067 115.654 31.2383 115.654 31.0332ZM126.904 31.0332C126.904 30.8135 126.992 30.5498 127.168 30.2422C127.344 29.9346 127.563 29.6489 127.827 29.3853C128.091 29.1069 128.369 28.8726 128.662 28.6821C128.955 28.4771 129.219 28.3745 129.453 28.3745C129.746 28.3745 129.922 28.4697 129.98 28.6602C130.024 28.8359 130.039 29.0337 130.024 29.2534C129.995 29.4731 129.98 29.6782 129.98 29.8687C129.98 30.0444 130.09 30.1323 130.31 30.1323C130.925 30.1323 131.497 29.8687 132.024 29.3413C132.551 28.814 133.005 28.1401 133.386 27.3198C133.782 26.4995 134.089 25.584 134.309 24.5732C134.529 23.5479 134.639 22.5518 134.639 21.585C134.639 20.75 134.551 20.0688 134.375 19.5415C134.214 18.9995 134.031 18.5381 133.826 18.1572C133.328 18.875 132.676 19.7539 131.87 20.7939C131.079 21.834 130.068 23.1377 128.838 24.7051L128.289 24.2656C129.46 22.7715 130.464 21.4824 131.299 20.3984C132.134 19.2998 132.852 18.3184 133.452 17.4541C133.379 17.293 133.313 17.1465 133.254 17.0146C133.21 16.8682 133.188 16.7217 133.188 16.5752C133.188 16.2383 133.284 15.894 133.474 15.5425C133.665 15.1763 133.906 14.8467 134.199 14.5537C134.492 14.2607 134.814 14.0264 135.166 13.8506C135.532 13.6602 135.884 13.5649 136.221 13.5649C136.396 13.5649 136.587 13.6162 136.792 13.7188C136.997 13.8066 137.1 14.0044 137.1 14.312C137.1 14.4146 137.048 14.5537 136.946 14.7295C136.843 14.9053 136.726 15.0884 136.594 15.2788C136.477 15.4692 136.367 15.6523 136.265 15.8281C136.162 16.0039 136.111 16.1431 136.111 16.2456C136.111 16.3628 136.155 16.5532 136.243 16.8169C136.345 17.0806 136.448 17.4175 136.55 17.8276C136.667 18.2378 136.77 18.7139 136.858 19.2559C136.96 19.7832 137.012 20.3765 137.012 21.0356C137.012 21.856 136.909 22.6763 136.704 23.4966C136.499 24.3022 136.221 25.0859 135.869 25.8477C135.518 26.5947 135.1 27.3052 134.617 27.979C134.133 28.6528 133.613 29.2534 133.057 29.7808C134.155 29.1802 135.312 28.3672 136.528 27.3418C137.744 26.3164 138.982 25.0054 140.242 23.4087L140.791 23.8481C139.912 24.9761 139.004 25.9795 138.066 26.8584C137.129 27.7373 136.191 28.5063 135.254 29.1655C134.316 29.8247 133.386 30.374 132.463 30.8135C131.555 31.2383 130.684 31.5605 129.849 31.7803C129.6 31.8535 129.358 31.9121 129.124 31.9561C128.875 31.9854 128.625 32 128.376 32C128.215 32 128.047 31.9927 127.871 31.978C127.695 31.9487 127.534 31.8975 127.388 31.8242C127.241 31.751 127.124 31.6558 127.036 31.5386C126.948 31.4067 126.904 31.2383 126.904 31.0332Z" fill="#2A2A2A"/>
</svg>
