<svg width="43" height="43" viewBox="0 0 43 43" fill="none" xmlns="http://www.w3.org/2000/svg">
<circle cx="21.5" cy="21.5" r="21.5" fill="#2A2A33"/>
<path d="M20.1366 34C19.4617 34 18.8165 33.9109 18.2008 33.7327C17.597 33.5545 17.0168 33.3228 16.4604 33.0377C15.9039 32.7526 15.3711 32.4377 14.862 32.0932C14.3648 31.7368 13.8852 31.3804 13.4235 31.024C12.7842 31.915 12.0915 32.6278 11.3456 33.1624C10.5997 33.6852 9.76503 33.9465 8.84153 33.9465C8.51002 33.9465 8.17851 33.8931 7.84699 33.7862C7.50364 33.6792 7.19581 33.5188 6.9235 33.305C6.65118 33.0793 6.43215 32.7942 6.26639 32.4496C6.0888 32.1051 6 31.6893 6 31.2022C6 30.7507 6.0888 30.3231 6.26639 29.9191C6.43215 29.5152 6.67486 29.1588 6.99454 28.8499C7.31421 28.541 7.699 28.2975 8.14891 28.1193C8.59882 27.9292 9.102 27.8341 9.65847 27.8341C10.1084 27.8341 10.5642 27.9411 11.026 28.1549C11.4995 28.3569 11.985 28.6182 12.4822 28.939C12.7901 28.2262 13.1097 27.4183 13.4413 26.5154C13.7846 25.6125 14.1753 24.5968 14.6134 23.4681C14.9449 22.5771 15.2883 21.6623 15.6434 20.7238C16.0105 19.7852 16.3834 18.8705 16.7623 17.9794C17.153 17.0765 17.5437 16.2271 17.9344 15.4311C18.337 14.6351 18.7454 13.9401 19.1598 13.3461C19.7992 12.4076 20.3971 11.6354 20.9536 11.0295C21.5219 10.4236 22.0783 9.93055 22.623 9.55038C23.1676 9.17021 23.7122 8.8732 24.2568 8.65936C24.8015 8.44551 25.3875 8.26731 26.015 8.12474C26.2045 8.07722 26.3998 8.04752 26.6011 8.03564C26.8142 8.01188 27.0214 8 27.2227 8C27.8028 8 28.377 8.09504 28.9454 8.28513C29.5255 8.47521 30.0405 8.76034 30.4904 9.14051C30.9403 9.5088 31.3015 9.96619 31.5738 10.5127C31.8579 11.0592 32 11.6948 32 12.4195C32 13.0372 31.8934 13.5837 31.6803 14.0589C31.4791 14.5342 31.2067 14.9618 30.8634 15.342C30.5319 15.7222 30.1471 16.0727 29.709 16.3934C29.2828 16.7142 28.8388 17.0231 28.377 17.3201C27.9271 17.6171 27.5068 17.8785 27.1161 18.1042C26.7373 18.318 26.4057 18.52 26.1216 18.7101C25.8374 18.8883 25.6125 19.0665 25.4467 19.2447C25.2928 19.411 25.2158 19.5952 25.2158 19.7971C25.2158 20.0347 25.3342 20.403 25.571 20.902C25.8197 21.3891 26.0861 21.9712 26.3702 22.6484C26.6662 23.3256 26.9326 24.074 27.1694 24.8938C27.418 25.7135 27.5424 26.557 27.5424 27.4243C27.5424 28.4103 27.347 29.3073 26.9563 30.1151C26.5774 30.9111 26.0565 31.6002 25.3934 32.1823C24.7304 32.7645 23.9431 33.2159 23.0314 33.5367C22.1316 33.8456 21.1667 34 20.1366 34ZM19.888 32.9486C20.6576 32.9486 21.362 32.8001 22.0014 32.5031C22.6526 32.2061 23.209 31.8081 23.6708 31.3091C24.1444 30.8101 24.5114 30.2399 24.7719 29.5984C25.0323 28.9568 25.1626 28.2856 25.1626 27.5846C25.1626 26.9075 25.056 26.2244 24.8429 25.5353C24.6416 24.8462 24.4107 24.1988 24.1503 23.5929C23.9016 22.9751 23.6708 22.4167 23.4577 21.9178C23.2564 21.4188 23.1557 21.0208 23.1557 20.7238C23.1557 20.4743 23.2268 20.2486 23.3689 20.0466C23.5109 19.8328 23.7122 19.6189 23.9727 19.4051C24.245 19.1912 24.5765 18.9536 24.9672 18.6923C25.3579 18.4309 25.8019 18.122 26.2992 17.7656C26.7728 17.4329 27.2108 17.0765 27.6134 16.6964C28.0278 16.3043 28.383 15.8885 28.679 15.4489C28.9868 15.0094 29.2236 14.546 29.3893 14.0589C29.5669 13.56 29.6557 13.0254 29.6557 12.4551C29.6557 11.873 29.5669 11.3681 29.3893 10.9404C29.2236 10.5008 28.9809 10.1385 28.6612 9.85332C28.3415 9.5682 27.9567 9.35435 27.5068 9.21179C27.0688 9.06923 26.5774 8.99794 26.0328 8.99794C25.7131 8.99794 25.4053 9.03952 25.1093 9.12269C24.8251 9.20585 24.5883 9.30683 24.3989 9.42563C23.949 9.71076 23.4991 10.1325 23.0492 10.6909C22.6111 11.2374 22.179 11.8789 21.7527 12.6155C21.3383 13.3521 20.924 14.1659 20.5096 15.0569C20.107 15.936 19.7104 16.8449 19.3197 17.7834C18.9408 18.7101 18.5679 19.6486 18.2008 20.599C17.8456 21.5376 17.5023 22.4405 17.1708 23.3077C16.6972 24.5314 16.2058 25.7254 15.6967 26.8897C15.1995 28.0539 14.6489 29.1172 14.0451 30.0795C14.5068 30.424 14.9745 30.7686 15.4481 31.1131C15.9217 31.4457 16.4012 31.7487 16.8866 32.0219C17.372 32.2952 17.8634 32.5209 18.3607 32.6991C18.8579 32.8654 19.367 32.9486 19.888 32.9486ZM8.64617 33.0555C9.01321 33.0555 9.34472 32.9961 9.64071 32.8773C9.94854 32.7466 10.2327 32.5565 10.4932 32.3071C10.7655 32.0576 11.026 31.7368 11.2746 31.3448C11.5232 30.9527 11.7719 30.4894 12.0205 29.9548C11.5706 29.6221 11.1325 29.3548 10.7063 29.1528C10.2801 28.939 9.87158 28.8321 9.48087 28.8321C9.04281 28.8321 8.66393 28.9093 8.34426 29.0637C8.01275 29.2063 7.74044 29.3964 7.52732 29.634C7.30237 29.8597 7.13661 30.1211 7.03005 30.4181C6.91166 30.7032 6.85246 30.9824 6.85246 31.2557C6.85246 31.814 7.01821 32.2536 7.34973 32.5744C7.6694 32.8951 8.10155 33.0555 8.64617 33.0555Z" fill="white"/>
</svg>
